<svg width="110" height="42" viewBox="0 0 110 42" fill="none" xmlns="http://www.w3.org/2000/svg">
<rect width="110" height="42" rx="8" fill="black"/>
<path d="M26.103 12.0927H15.9592C13.8395 12.0927 12.1211 13.811 12.1211 15.9307V26.0746C12.1211 28.1943 13.8395 29.9127 15.9592 29.9127H26.103C28.2227 29.9127 29.9411 28.1943 29.9411 26.0746V15.9307C29.9411 13.811 28.2227 12.0927 26.103 12.0927Z" fill="#E14459"/>
<path d="M16.4653 13.2576C16.3309 13.2578 16.202 13.3112 16.1071 13.406C16.0121 13.5008 15.9589 13.6293 15.959 13.7632C15.9591 13.8972 16.0126 14.0256 16.1077 14.1202C16.2028 14.2148 16.3318 14.268 16.4662 14.2679C16.6006 14.2679 16.7295 14.2146 16.8245 14.1199C16.9195 14.0252 16.9729 13.8967 16.9729 13.7628V13.7618C16.9727 13.6279 16.9191 13.4995 16.8239 13.405C16.7287 13.3104 16.5997 13.2574 16.4653 13.2576V13.2576ZM25.5333 13.2576C25.3989 13.2578 25.27 13.3112 25.1751 13.406C25.0801 13.5008 25.0269 13.6293 25.027 13.7632C25.0271 13.8972 25.0806 14.0256 25.1758 14.1202C25.2709 14.2149 25.3999 14.268 25.5343 14.2679C25.6687 14.2678 25.7975 14.2146 25.8926 14.1199C25.9876 14.0251 26.0409 13.8967 26.041 13.7628V13.7618C26.0407 13.6278 25.9871 13.4995 25.8919 13.4049C25.7967 13.3104 25.6677 13.2574 25.5333 13.2576V13.2576Z" fill="#C73148"/>
<path d="M16.445 13.6931C16.2688 13.7026 16.2777 13.9588 16.2777 13.9588C17.2246 15.8027 18.968 16.7071 20.9785 16.7072C22.9864 16.7043 24.7471 15.7899 25.6927 13.9485C25.6927 13.9485 25.7302 13.6017 25.3611 13.7219C24.3914 15.3293 22.7622 16.2802 20.9797 16.2831C19.1938 16.2836 17.5704 15.3427 16.5989 13.7323C16.5361 13.702 16.4857 13.691 16.445 13.6931V13.6931ZM22.8532 20.8603L22.3145 22.4646L21.7901 20.8615H21.2782L22.1047 23.1935H22.5032L23.043 21.6616L23.5823 23.1935H23.9841L24.8088 20.8615H24.3097L23.7844 22.4646L23.2457 20.8603H22.8532ZM19.9919 20.8609L18.9467 23.1923H19.4381L19.6399 22.741L19.6541 22.7069H20.7401L20.9529 23.1923H21.4577L20.422 20.8745L20.4128 20.8609L19.9919 20.8609ZM27.5614 20.8612V23.1908H28.0364V20.8612L27.5614 20.8612ZM13.9424 20.8615V23.1944H14.4239V22.2469H15.5108V23.1944H15.9923V20.8615H15.5108V21.8027H14.4239V20.8615L13.9424 20.8615ZM18.2205 20.862V22.1974C18.2205 22.5767 18.0291 22.7792 17.6813 22.7792C17.3315 22.7792 17.1387 22.571 17.1387 22.1814V20.8636H16.6575V22.1974C16.6575 22.8538 17.0286 23.23 17.675 23.23C18.3276 23.23 18.7018 22.8465 18.7018 22.1781V20.8621L18.2205 20.862ZM25.1969 20.8629V23.1926H26.9885V22.7679H25.6716V22.1903H26.5471V21.7654H25.6716V21.2879H26.9427V20.863L25.1969 20.8629ZM20.1958 21.4513L20.5392 22.2324L20.5625 22.286H19.8345L19.8574 22.2324L20.1958 21.4513Z" fill="white"/>
<path d="M41.826 22.5677H38.3672L37.5205 24.8816H36L39.3864 16.2404H40.8236L44.2882 24.8816H42.6909L41.826 22.5677ZM38.8029 21.3929H41.3851L40.4603 18.9179C40.3332 18.5761 40.208 18.1985 40.0846 17.7851C39.9733 18.1508 39.8521 18.5246 39.7211 18.9065L38.8029 21.3929Z" fill="white"/>
<path d="M44.9748 20.0212C44.9748 19.5443 44.959 19.0194 44.9272 18.4465H46.3105C46.3625 18.7166 46.3984 18.9895 46.418 19.2639C46.9905 18.6396 47.6465 18.3274 48.386 18.3274C48.8275 18.3204 49.261 18.4451 49.6312 18.6858C50.0015 18.9264 50.2915 19.2719 50.4644 19.6782C50.7078 20.2391 50.8229 20.8472 50.8014 21.4582C50.8196 22.1211 50.688 22.7795 50.4164 23.3845C50.1872 23.8869 49.8122 24.3088 49.34 24.5952C48.8549 24.8758 48.3022 25.0181 47.7419 25.0067C47.3012 25.0061 46.8638 24.9315 46.4478 24.7861V27.4449L44.9748 27.5704V20.0212ZM48.8479 23.31C49.1483 22.9065 49.2984 22.3172 49.2982 21.542C49.2982 20.8223 49.174 20.3002 48.9256 19.9758C48.8119 19.8204 48.6621 19.6951 48.4891 19.6104C48.3162 19.5258 48.1252 19.4844 47.9328 19.4899C47.6554 19.4876 47.3823 19.5573 47.14 19.6923C46.8839 19.8381 46.6508 20.021 46.4484 20.2351V23.682C46.6117 23.7592 46.7838 23.8163 46.961 23.852C47.1512 23.8933 47.3452 23.9143 47.5399 23.9146C47.7909 23.9292 48.0417 23.8816 48.2699 23.7761C48.4982 23.6707 48.697 23.5106 48.8487 23.31H48.8479Z" fill="white"/>
<path d="M51.7438 20.0212C51.7438 19.5443 51.728 19.0194 51.6963 18.4465H53.0797C53.1317 18.7166 53.1675 18.9895 53.1871 19.2639C53.7595 18.6396 54.4156 18.3274 55.1552 18.3274C55.5967 18.3204 56.0303 18.4451 56.4005 18.6858C56.7707 18.9264 57.0608 19.2719 57.2336 19.6782C57.4769 20.2391 57.5921 20.8472 57.5706 21.4582C57.5886 22.1212 57.4568 22.7796 57.1849 23.3845C56.9558 23.8869 56.5808 24.3088 56.1087 24.5952C55.6235 24.8758 55.0707 25.0181 54.5104 25.0067C54.0698 25.0061 53.6324 24.9315 53.2165 24.7861V27.4449L51.7433 27.5704L51.7438 20.0212ZM55.6171 23.31C55.9174 22.9065 56.0675 22.3172 56.0675 21.542C56.0675 20.8223 55.9432 20.3002 55.6947 19.9758C55.5809 19.8204 55.4311 19.695 55.2582 19.6104C55.0852 19.5257 54.8943 19.4844 54.7018 19.4899C54.4245 19.4876 54.1513 19.5573 53.909 19.6923C53.6529 19.8381 53.4199 20.021 53.2174 20.2351V23.682C53.3808 23.7592 53.5529 23.8163 53.73 23.852C53.9202 23.8933 54.1143 23.9143 54.3089 23.9146C54.5599 23.9291 54.8105 23.8814 55.0387 23.776C55.2668 23.6705 55.4655 23.5105 55.6171 23.31V23.31Z" fill="white"/>
<path d="M60.3503 24.4731C59.7206 24.1281 59.2093 23.6014 58.8831 22.9617C58.5262 22.2394 58.3503 21.4412 58.3705 20.6358C58.3436 19.7738 58.5471 18.9202 58.9601 18.163C59.3323 17.5057 59.892 16.9743 60.5676 16.6365C61.2774 16.2891 62.0591 16.1144 62.8492 16.1266C63.3281 16.1245 63.8055 16.1796 64.2713 16.2907C64.707 16.3945 65.13 16.5455 65.533 16.7409L65.1573 17.8739C64.4611 17.5215 63.6946 17.3299 62.9144 17.3132C62.3639 17.3007 61.8198 17.4334 61.3368 17.6978C60.8801 17.9599 60.5132 18.3538 60.2842 18.8279C60.0195 19.3905 59.8909 20.0074 59.9085 20.6289C59.8986 21.1891 59.9971 21.7459 60.1985 22.2687C60.3793 22.731 60.6979 23.1265 61.111 23.4018C61.5809 23.6953 62.1283 23.8407 62.682 23.8192C62.9697 23.8192 63.257 23.7952 63.5408 23.7477C63.8151 23.7033 64.0846 23.6334 64.3458 23.5389V21.7915H62.3484V20.6466H65.7774V24.2844C65.28 24.5164 64.7591 24.6943 64.2238 24.8152C63.6927 24.937 63.1495 24.999 62.6046 24.9998C61.8205 25.02 61.0443 24.8387 60.3503 24.4731V24.4731Z" fill="white"/>
<path d="M71.0846 24.8818C71.0292 24.6005 70.9954 24.3155 70.9834 24.0291C70.7369 24.3152 70.4358 24.5494 70.0977 24.7178C69.7163 24.9108 69.2937 25.008 68.8664 25.0011C68.5173 25.0055 68.1717 24.9312 67.8553 24.7835C67.5544 24.6412 67.3023 24.4129 67.1308 24.1275C66.9434 23.8026 66.8505 23.4319 66.8626 23.0571C66.8519 22.7729 66.9071 22.4901 67.0241 22.2308C67.141 21.9716 67.3165 21.743 67.5367 21.563C67.9859 21.1913 68.7353 21.0054 69.7848 21.0054C70.1759 21.0052 70.5665 21.0331 70.9537 21.0889V20.9636C70.9537 20.395 70.8324 19.9945 70.5898 19.7621C70.3012 19.5129 69.9261 19.3874 69.5456 19.4131C69.2052 19.4167 68.8666 19.4628 68.5377 19.5504C68.2139 19.6301 67.8984 19.7402 67.5953 19.8791L67.3632 18.8056C67.6978 18.6628 68.0454 18.5527 68.4012 18.4769C68.8473 18.3755 69.3036 18.3254 69.761 18.3276C70.2464 18.3145 70.7293 18.4008 71.1801 18.5813C71.5762 18.7564 71.8988 19.0641 72.0925 19.4514C72.3342 19.9705 72.447 20.5403 72.4212 21.1123V23.6708C72.4212 23.9371 72.4371 24.3406 72.4688 24.8814L71.0846 24.8818ZM70.2019 23.689C70.4865 23.558 70.742 23.3715 70.9535 23.1404V21.9478C70.6268 21.9088 70.2984 21.887 69.9695 21.8822C69.3613 21.8822 68.941 21.9806 68.7084 22.1773C68.5937 22.2748 68.5027 22.3972 68.4423 22.5352C68.382 22.6732 68.354 22.8231 68.3604 22.9735C68.3498 23.1026 68.3669 23.2324 68.4105 23.3544C68.4542 23.4763 68.5234 23.5874 68.6135 23.6804C68.8056 23.8416 69.0518 23.9237 69.3022 23.9102C69.615 23.9054 69.9226 23.8298 70.2019 23.689V23.689Z" fill="white"/>
<path d="M73.7095 23.3369V15.7334L75.1761 15.6143V23.0747C75.1572 23.2787 75.2066 23.4832 75.3164 23.6561C75.3728 23.7164 75.4421 23.763 75.5192 23.7925C75.5962 23.8219 75.679 23.8334 75.7612 23.8261C75.8922 23.8196 76.022 23.7976 76.1479 23.7605L76.3219 24.8162C76.157 24.8787 75.986 24.9237 75.8116 24.9504C75.6235 24.9829 75.4331 24.9998 75.2422 25.0009C74.2203 25.0009 73.7093 24.4462 73.7095 23.3369Z" fill="white"/>
<path d="M77.3779 23.3369V15.7334L78.8447 15.6143V23.0747C78.8258 23.2787 78.8751 23.4832 78.9849 23.6561C79.0412 23.7164 79.1106 23.763 79.1876 23.7925C79.2647 23.8219 79.3475 23.8334 79.4296 23.8261C79.5607 23.8196 79.6905 23.7976 79.8163 23.7605L79.9904 24.8162C79.8254 24.8787 79.6544 24.9237 79.4801 24.9504C79.292 24.9829 79.1015 24.9998 78.9107 25.0009C77.8887 25.0009 77.3778 24.4462 77.3779 23.3369Z" fill="white"/>
<path d="M86.0963 21.8523H81.8862C81.954 23.2 82.5961 23.8739 83.8126 23.874C84.1252 23.8728 84.4366 23.8358 84.7407 23.7636C85.0516 23.6917 85.3557 23.5929 85.6495 23.4684L85.9714 24.4765C85.2131 24.8348 84.3828 25.0143 83.5442 25.0011C82.9443 25.0208 82.3491 24.8877 81.8147 24.6144C81.353 24.3636 80.9825 23.9732 80.756 23.4991C80.506 22.9492 80.3847 22.3496 80.4014 21.7458C80.3847 21.1128 80.5132 20.4844 80.7771 19.9089C81.0033 19.4232 81.3673 19.0146 81.8237 18.7341C82.2917 18.4578 82.8273 18.3172 83.3706 18.328C83.9106 18.3084 84.4433 18.4575 84.8946 18.7546C85.3006 19.0373 85.6156 19.4321 85.8013 19.8907C86.0027 20.3887 86.1029 20.9217 86.0961 21.4588L86.0963 21.8523ZM84.6591 20.9161C84.6654 20.4986 84.529 20.0915 84.2724 19.7621C84.1559 19.6343 84.0127 19.5335 83.853 19.4671C83.6933 19.4006 83.521 19.3701 83.3482 19.3775C83.1741 19.373 83.0011 19.405 82.8403 19.4717C82.6795 19.5383 82.5344 19.638 82.4146 19.7643C82.1372 20.0883 81.9674 20.4905 81.9285 20.9153L84.6591 20.9161Z" fill="white"/>
<path d="M87.2829 20.0633C87.2829 19.7093 87.2671 19.1705 87.2354 18.4468H88.6128C88.6369 18.6259 88.6598 18.8396 88.6815 19.088C88.7031 19.3364 88.718 19.5381 88.7261 19.6932C88.8745 19.4425 89.043 19.2042 89.2298 18.9807C89.3925 18.7897 89.5886 18.6301 89.8085 18.5095C90.0402 18.3854 90.2998 18.3227 90.5626 18.3275C90.7599 18.3238 90.9568 18.3478 91.1473 18.3991L90.9623 19.6752C90.8073 19.63 90.6464 19.6079 90.4849 19.6099C90.1626 19.6029 89.8461 19.6956 89.5784 19.8751C89.2557 20.1184 88.9757 20.4136 88.7499 20.7487V24.8815H87.2827L87.2829 20.0633Z" fill="white"/>
<path d="M92.0308 27.5145C91.8508 27.4853 91.6734 27.4424 91.5 27.3863L91.7684 26.3129C91.8675 26.3407 91.9928 26.3675 92.1443 26.3934C92.2859 26.4183 92.4295 26.4312 92.5733 26.432C93.2252 26.432 93.7143 26.0126 94.0407 25.1737L94.1358 24.9353L91.7626 18.4467H93.3425L94.5355 22.0728C94.6905 22.5396 94.816 23.0156 94.9114 23.4981C95.0227 23.0329 95.1538 22.5676 95.3047 22.1024L96.5153 18.4467H98.0002L95.633 24.9649C95.4552 25.4898 95.2129 25.9907 94.9116 26.4558C94.6812 26.808 94.3666 27.097 93.9962 27.2967C93.6001 27.4896 93.1632 27.5838 92.7228 27.5713C92.4909 27.5725 92.2593 27.5534 92.0308 27.5145V27.5145Z" fill="white"/>
</svg>
