<svg width="110" height="42" viewBox="0 0 110 42" fill="none" xmlns="http://www.w3.org/2000/svg">
<rect x="0.5" y="0.5" width="109" height="41" rx="7.5" fill="black"/>
<path d="M14.3217 12.2708C14.1196 12.4839 14 12.8147 14 13.244V28.5569C14 28.9862 14.1196 29.3163 14.3217 29.5294L22.9748 20.8997L14.3217 12.2708Z" fill="#00E3FF"/>
<path d="M14.3733 12.2195L14.3218 12.2701C14.339 12.2522 14.3632 12.2444 14.3811 12.2273L14.3733 12.2195Z" fill="#00E3FF"/>
<path d="M14.3741 29.5802L14.3819 29.5724C14.3632 29.556 14.339 29.5482 14.3218 29.5295L14.3741 29.5802Z" fill="#00E3FF"/>
<path d="M29.3042 19.9015L25.9068 17.9766H25.906L22.9746 20.9001L25.906 23.8251L25.8405 23.8628L25.906 23.8259L29.3034 21.901C30.2746 21.3509 30.2746 20.4515 29.3042 19.9015V19.9015Z" fill="#FFE000"/>
<path d="M22.9749 20.9001L14.3218 29.5298C14.3387 29.5483 14.3627 29.556 14.3812 29.5721C14.7052 29.8614 15.2012 29.8914 15.7643 29.5721L25.8415 23.8629L25.9071 23.8252L22.9749 20.9001Z" fill="#FF3A44"/>
<path d="M22.9749 20.9003L25.9063 17.9761L25.9071 17.9753L15.7643 12.2283C15.2012 11.9091 14.7036 11.9391 14.3804 12.2283C14.3627 12.2453 14.3387 12.253 14.3218 12.2707L22.9749 20.9003Z" fill="#00F076"/>
<path d="M48.7363 19.8728C47.1032 19.8728 45.7725 21.1107 45.7725 22.8178C45.7725 24.5135 47.1032 25.7629 48.7363 25.7629C50.3694 25.7629 51.7001 24.5135 51.7001 22.8178C51.7001 21.1114 50.3694 19.8728 48.7363 19.8728ZM48.7363 24.6027C47.8414 24.6027 47.07 23.8664 47.07 22.8178C47.07 21.7585 47.8414 21.033 48.7363 21.033C49.6311 21.033 50.4026 21.7577 50.4026 22.8178C50.4033 23.8664 49.6311 24.6027 48.7363 24.6027Z" fill="white"/>
<path d="M55.2021 19.8728C53.569 19.8728 52.2383 21.1107 52.2383 22.8178C52.2383 24.5135 53.569 25.7629 55.2021 25.7629C56.8352 25.7629 58.1659 24.5135 58.1659 22.8178C58.1667 21.1114 56.8352 19.8728 55.2021 19.8728ZM55.2021 24.6027C54.3072 24.6027 53.5358 23.8664 53.5358 22.8178C53.5358 21.7585 54.308 21.033 55.2021 21.033C56.0962 21.033 56.8684 21.7577 56.8684 22.8178C56.8691 23.8664 56.097 24.6027 55.2021 24.6027Z" fill="white"/>
<path d="M83.4364 16.9285H82.1411V25.5843H83.4364V16.9285Z" fill="white"/>
<path d="M41.0444 20.7776V22.0262H44.0421C43.9526 22.7286 43.7181 23.2418 43.3594 23.5987C42.9235 24.0334 42.2408 24.5135 41.0444 24.5135C39.1991 24.5135 37.7558 23.0302 37.7558 21.1892C37.7558 19.3481 39.1983 17.8649 41.0444 17.8649C42.0403 17.8649 42.7669 18.2557 43.3039 18.7573L44.1871 17.8764C43.4381 17.1624 42.4422 16.6162 41.0444 16.6162C38.5164 16.6162 36.3911 18.6688 36.3911 21.1899C36.3911 23.7111 38.5164 25.7637 41.0444 25.7637C42.409 25.7637 43.4381 25.3175 44.2435 24.4812C45.0712 23.6557 45.3289 22.4955 45.3289 21.5585C45.3289 21.2684 45.3065 21.0007 45.2617 20.7776H41.0444Z" fill="white"/>
<path d="M86.6189 19.8589C85.6808 19.8589 84.7096 20.2713 84.3077 21.1845L85.4579 21.663C85.7032 21.1845 86.1614 21.0283 86.6413 21.0283C87.3109 21.0283 87.992 21.4291 88.0036 22.1415V22.2308C87.7691 22.0969 87.2669 21.8969 86.6528 21.8969C85.4131 21.8969 84.1519 22.5762 84.1519 23.8456C84.1519 25.0035 85.1678 25.7497 86.3072 25.7497C87.1782 25.7497 87.658 25.3597 87.9596 24.9035H88.0044V25.5712H89.2549V22.2523C89.2541 20.7159 88.1039 19.8589 86.6189 19.8589V19.8589ZM86.4623 24.6026C86.038 24.6026 85.4463 24.3911 85.4463 23.8679C85.4463 23.2001 86.183 22.9439 86.8195 22.9439C87.3888 22.9439 87.6572 23.0663 88.0028 23.2332C87.9033 24.0349 87.2106 24.6026 86.4623 24.6026V24.6026Z" fill="white"/>
<path d="M92.3245 23.7997H92.2798L90.7393 20.0469H89.3438L91.6549 25.2922L90.3373 28.2096H91.6881L95.2506 20.0469H93.8095L92.3245 23.7997Z" fill="white"/>
<path d="M63.14 20.5323H63.0945C62.8036 20.1869 62.2443 19.8745 61.54 19.8745C60.0635 19.8745 58.7104 21.1685 58.7104 22.8303C58.7104 24.4813 60.0635 25.7638 61.54 25.7638C62.2443 25.7638 62.8036 25.4515 63.0945 25.0945H63.1392V25.5184C63.1392 26.6447 62.5352 27.2471 61.5624 27.2471C60.7686 27.2471 60.2764 26.6786 60.0751 26.1985L58.9457 26.667C59.2697 27.4479 60.1314 28.4073 61.5632 28.4073C63.0844 28.4073 64.3704 27.5148 64.3704 25.3399V20.0522H63.14V20.5323ZM61.6511 24.6037C60.7563 24.6037 60.0072 23.8566 60.0072 22.8303C60.0072 21.7932 60.757 21.0347 61.6511 21.0347C62.5344 21.0347 63.2279 21.7932 63.2279 22.8303C63.2287 23.8566 62.5352 24.6037 61.6511 24.6037Z" fill="white"/>
<path d="M78.5788 16.9285H75.4746V25.5843H76.7698V22.3046H78.5788C80.0152 22.3046 81.4262 21.2675 81.4262 19.6165C81.4262 17.9655 80.0152 16.9285 78.5788 16.9285ZM78.6128 21.0998H76.7698V18.1325H78.612C79.5809 18.1325 80.1309 18.9326 80.1309 19.6158C80.1309 20.2874 79.5809 21.0998 78.6128 21.0998Z" fill="white"/>
<path d="M66.5622 16.9285H65.2646V25.5843H66.5622V16.9285Z" fill="white"/>
<path d="M72.5018 21.7469C72.2557 21.0891 71.5066 19.8728 69.9738 19.8728C68.4526 19.8728 67.189 21.0661 67.189 22.8178C67.189 24.4688 68.4418 25.7629 70.1196 25.7629C71.4727 25.7629 72.2557 24.9374 72.5805 24.4581L71.5737 23.7887C71.2382 24.2796 70.78 24.6027 70.1196 24.6027C69.4593 24.6027 68.9902 24.3011 68.6878 23.7103L72.636 22.0816L72.5018 21.7469ZM68.4749 22.7286C68.441 21.5907 69.3582 21.0107 70.0186 21.0107C70.5331 21.0107 70.9697 21.2668 71.1148 21.6354L68.4749 22.7286Z" fill="white"/>
<rect x="0.5" y="0.5" width="109" height="41" rx="7.5" stroke="black"/>
</svg>
