<svg width="48" height="48" viewBox="0 0 48 48" fill="none" xmlns="http://www.w3.org/2000/svg">
<g clip-path="url(#clip0_3_922)">
<path d="M32 0H16C7.16344 0 0 7.16344 0 16V32C0 40.8366 7.16344 48 16 48H32C40.8366 48 48 40.8366 48 32V16C48 7.16344 40.8366 0 32 0Z" fill="#43B02A"/>
<path d="M-2.26223 34.435L-3.51093 30.098L4.15406 27.8911L5.40276 32.2282L-2.26223 34.435Z" fill="white"/>
<path d="M33.854 26.2596C34.1204 27.1848 34.2188 28.0644 34.1492 28.8985C34.0987 29.7271 33.9005 30.473 33.5546 31.1362C33.2278 31.7939 32.7723 32.3634 32.1882 32.8446C31.6232 33.3204 30.9498 33.6709 30.1681 33.8959C29.3863 34.121 28.6201 34.1851 27.8695 34.0881C27.138 33.9856 26.4494 33.7455 25.8039 33.3678C25.1773 32.9846 24.6128 32.4583 24.1104 31.7889C23.627 31.114 23.2521 30.3139 22.9857 29.3887L20.4051 20.4256C20.1387 19.5004 20.0308 18.6234 20.0813 17.7948C20.1508 16.9607 20.349 16.2149 20.6759 15.5572C21.0218 14.894 21.4772 14.3245 22.0423 13.8487C22.6264 13.3675 23.3093 13.0143 24.0911 12.7892C24.8728 12.5641 25.6294 12.5028 26.361 12.6053C27.1116 12.7023 27.8001 12.9424 28.4266 13.3256C29.0722 13.7033 29.6367 14.2296 30.1201 14.9045C30.6226 15.5739 31.007 16.3712 31.2734 17.2964L33.854 26.2596ZM27.1042 28.2029C27.2707 28.7812 27.5143 29.2329 27.8351 29.558C28.1749 29.8776 28.5641 29.9743 29.0026 29.8481C29.4411 29.7218 29.7098 29.4357 29.8085 28.9898C29.9263 28.5384 29.902 28.0236 29.7355 27.4453L27.1549 18.4822C26.9884 17.9039 26.7352 17.455 26.3954 17.1354C26.0747 16.8102 25.695 16.7108 25.2565 16.8371C24.818 16.9633 24.5398 17.2522 24.422 17.7035C24.3232 18.1494 24.3571 18.6615 24.5236 19.2398L27.1042 28.2029Z" fill="white"/>
<path d="M19.7232 32.2648L20.7937 36.4319L16.4767 37.5409L15.4062 33.3739L9.32052 34.9373L8.173 30.4704L12.2549 16.2553L15.4027 15.4467L18.6989 28.2777L20.4377 27.831L21.462 31.8182L19.7232 32.2648ZM14.3819 29.3867L13.1189 24.4701L11.474 30.1337L14.3819 29.3867Z" fill="white"/>
<path fill-rule="evenodd" clip-rule="evenodd" d="M45.3126 6.79645L44.2631 7.09861L37.8493 30.8624L41.167 29.9072L46.7078 9.37806C46.321 8.47148 45.8529 7.60789 45.3126 6.79645ZM47.9847 19.1337C47.7192 19.1558 47.4519 19.2056 47.1828 19.2831C46.6298 19.4423 46.136 19.6993 45.7013 20.054C45.2857 20.4033 44.9399 20.8159 44.664 21.292C44.4072 21.7625 44.246 22.2786 44.1806 22.8401C44.1096 23.3824 44.1546 23.933 44.3155 24.492L44.4487 24.9546C44.6096 25.5136 44.8644 26.0039 45.2128 26.4254C45.5613 26.8469 45.9694 27.1886 46.4371 27.4505C46.9239 27.707 47.4362 27.8726 47.9739 27.9474C47.9775 27.9477 47.9811 27.948 47.9847 27.9483V25.2244C47.8944 25.1947 47.8043 25.1567 47.7145 25.1102C47.3397 24.8841 47.0941 24.5687 46.9775 24.1639L46.861 23.7591C46.75 23.3736 46.7959 22.9951 46.9986 22.6236C47.2149 22.2274 47.5232 21.9716 47.9237 21.8564C47.9441 21.8505 47.9644 21.845 47.9847 21.84V19.1337ZM41.2089 14.24C41.299 13.6923 41.2635 13.1389 41.1026 12.5799L40.9694 12.1173C40.8085 11.5583 40.5442 11.0708 40.1767 10.6548C39.8226 10.214 39.4022 9.86536 38.9154 9.60892C38.4477 9.34699 37.9355 9.18138 37.3787 9.11208C36.8409 9.03729 36.2956 9.0795 35.7427 9.2387C35.1897 9.39791 34.6959 9.65486 34.2612 10.0097C33.8456 10.359 33.4998 10.7716 33.2239 11.2477C32.9671 11.7182 32.8059 12.2342 32.7405 12.7958C32.6695 13.3381 32.7145 13.8887 32.8754 14.4477L33.0086 14.9103C33.1696 15.4693 33.4243 15.9595 33.7728 16.381C34.1212 16.8025 34.5293 17.1443 34.9971 17.4062C35.4838 17.6626 35.9961 17.8283 36.5338 17.903C37.0851 17.9531 37.6372 17.8985 38.1901 17.7393C38.7431 17.5801 39.2301 17.3355 39.6513 17.0055C40.086 16.6507 40.4318 16.238 40.6886 15.7675C40.9645 15.2915 41.1379 14.7823 41.2089 14.24ZM37.7036 11.9617C38.0919 12.163 38.3416 12.4564 38.4526 12.8419L38.5691 13.2467C38.6856 13.6515 38.6358 14.052 38.4195 14.4483C38.1977 14.8252 37.877 15.0741 37.4575 15.1949C37.0571 15.3102 36.6628 15.2672 36.2744 15.0659C35.8996 14.8398 35.654 14.5244 35.5374 14.1196L35.4209 13.7148C35.3099 13.3293 35.3558 12.9508 35.5585 12.5793C35.7748 12.1831 36.0831 11.9273 36.4836 11.812C36.903 11.6913 37.3097 11.7412 37.7036 11.9617Z" fill="white"/>
</g>
<defs>
<clipPath id="clip0_3_922">
<rect width="48" height="48" fill="white"/>
</clipPath>
</defs>
</svg>
