<svg width="48" height="48" viewBox="0 0 48 48" fill="none" xmlns="http://www.w3.org/2000/svg">
<rect width="48" height="48" rx="16" fill="#8718C3"/>
<path d="M31.6515 7.36719L27.1713 12.1707L27.4022 7.50575L24.9543 12.2015L23.661 7.47496L22.8604 12.1245L20.5049 7.47496L20.3971 12.1707L16.425 7.45957L21.7365 22.6552L26.9865 22.5937L31.6515 7.36719Z" fill="#C0E816"/>
<path d="M31.575 26.2423C31.575 25.5803 31.2517 25.0106 30.7437 24.6565C31.2363 24.3024 31.575 23.7328 31.575 23.0708C31.575 21.993 30.7129 21.1309 29.6352 21.1309C29.4196 21.1309 29.2041 21.1617 29.0039 21.2387C29.0039 21.1771 29.0193 21.1155 29.0193 21.0385C29.0193 19.9608 28.1572 19.0986 27.0794 19.0986C26.402 19.0986 25.8016 19.4527 25.4475 19.9762C25.1088 19.4527 24.5084 19.0986 23.8155 19.0986C23.0765 19.0986 22.4453 19.5143 22.1066 20.1148C21.7833 19.5143 21.1367 19.0986 20.3977 19.0986C19.32 19.0986 18.4578 19.9608 18.4578 21.0385C18.4578 21.2233 18.4886 21.408 18.5348 21.5774C18.4578 21.562 18.3654 21.562 18.2884 21.562C17.2107 21.562 16.3486 22.4241 16.3486 23.5018C16.3486 24.1485 16.6719 24.7181 17.1491 25.0722C16.6565 25.4263 16.3486 25.996 16.3486 26.6426C16.3486 27.4278 16.8258 28.1052 17.4879 28.4131C17.103 28.7672 16.8566 29.2753 16.8566 29.8449C16.8566 30.9226 17.7188 31.7848 18.7965 31.7848C18.9505 31.7848 19.089 31.7694 19.2276 31.7386C19.2276 31.754 19.2276 31.7694 19.2276 31.7848C19.2276 32.8625 20.0898 33.7247 21.1675 33.7247C21.7063 33.7247 22.1836 33.5091 22.5377 33.155C22.8764 33.7093 23.4922 34.0788 24.185 34.0788C25.078 34.0788 25.817 33.4783 26.0479 32.6624C26.3866 33.1858 26.9871 33.5399 27.6645 33.5399C28.7422 33.5399 29.6044 32.6777 29.6044 31.6C30.6821 31.6 31.5442 30.7379 31.5442 29.6602C31.5442 28.9212 31.1286 28.2745 30.5127 27.9512C31.1593 27.6279 31.575 26.9813 31.575 26.2423Z" fill="#FAF137"/>
<path d="M27.9109 21.6695C28.1999 21.6695 28.4343 21.4351 28.4343 21.146C28.4343 20.8569 28.1999 20.6226 27.9109 20.6226C27.6218 20.6226 27.3874 20.8569 27.3874 21.146C27.3874 21.4351 27.6218 21.6695 27.9109 21.6695Z" fill="#8818C4"/>
<path d="M26.479 21.6695C26.7681 21.6695 27.0025 21.4351 27.0025 21.146C27.0025 20.8569 26.7681 20.6226 26.479 20.6226C26.1899 20.6226 25.9556 20.8569 25.9556 21.146C25.9556 21.4351 26.1899 21.6695 26.479 21.6695Z" fill="#8818C4"/>
<path d="M29.8199 22.625C29.8199 22.8867 29.6044 23.1023 29.3426 23.1023C29.0809 23.1023 28.8654 22.8867 28.8654 22.625" stroke="#F24833" stroke-width="0.7348" stroke-miterlimit="10"/>
<path d="M30.7745 22.6243C30.7745 22.886 30.5589 23.1015 30.2972 23.1015C30.0355 23.1015 29.8199 22.886 29.8199 22.6243" stroke="#F24833" stroke-width="0.7348" stroke-miterlimit="10"/>
<path d="M21.614 32.8164V40.6325H22.6301" stroke="#FAF137" stroke-width="0.3" stroke-miterlimit="10"/>
<path d="M23.0458 32.8164V40.6325H24.062" stroke="#FAF137" stroke-width="0.3" stroke-miterlimit="10"/>
<path d="M26.479 32.8164V40.6325H27.4951" stroke="#FAF137" stroke-width="0.3" stroke-miterlimit="10"/>
<path d="M27.9108 32.8164V40.6325H28.9269" stroke="#FAF137" stroke-width="0.3" stroke-miterlimit="10"/>
</svg>
