<svg width="48" height="48" viewBox="0 0 48 48" fill="none" xmlns="http://www.w3.org/2000/svg">
<g clip-path="url(#clip0)">
<rect width="48" height="48" rx="16" fill="black"/>
<path fill-rule="evenodd" clip-rule="evenodd" d="M2.04903 33.8663L1.74168 33.9589L2.46137 36.3473C2.61691 36.3399 2.77484 36.3186 2.93517 36.2835C3.09913 36.2604 3.2474 36.2289 3.37998 36.1889C4.00674 36 4.51277 35.716 4.89809 35.3367C5.27978 34.9454 5.55882 34.4534 5.73522 33.8608C5.91163 33.2682 5.99324 32.5791 5.98005 31.7936C5.97629 31.6156 5.96892 31.4321 5.95794 31.2431L2.67503 32.8447L2.94182 33.3605C2.74437 33.5778 2.44678 33.7465 2.04903 33.8663ZM13.0571 30.1742L11.3938 30.6754L10.8462 28.8582L8.37037 30.0661L9.55368 33.993L14.9956 32.3532L15.6935 34.6692L17.7184 34.059L16.7996 29.0465L15.6606 29.3897L14.9039 26.8786L12.428 28.0865L13.0571 30.1742ZM18.5934 31.269L16.9671 25.8721L21.4375 23.6911L21.7293 24.6597L19.6321 25.2917L20.4336 27.9514L23.0551 27.1615L23.8184 29.6946L18.5934 31.269ZM26.3468 23.288L28.1547 22.7432L29.714 27.918L32.3175 27.1335L30.0187 19.5047L23.3476 22.7593L25.3026 29.2473L27.9061 28.4628L26.3468 23.288ZM37.2188 18.2554L41.3606 24.4085L38.6849 25.2148L34.8691 19.3582L34.8512 17.147L37.2894 15.9575L37.2188 18.2554ZM34.2859 17.4228L34.8691 19.3582L36.8046 25.7814L34.2012 26.5659L31.81 18.6307L34.2859 17.4228ZM40.4925 14.3949L41.8653 24.2564L44.3061 23.5209L43.9158 21.3096L45.7582 20.8136L46.6202 22.8236L49.2418 22.0336L44.6154 12.3834L42.6503 13.3421L42.8145 13.9245L44.7619 18.4889L43.5072 18.9065L42.6699 13.9681L42.4936 13.4186L40.4925 14.3949Z" fill="white"/>
<path fill-rule="evenodd" clip-rule="evenodd" d="M5.71857 30.0707L2.40054 31.5982L-2.13354 22.3282L0.541456 21.5872L3.09064 27.6069L3.35494 28.6318L3.53691 28.5814L3.23621 27.5666L2.10642 21.1537L4.59945 20.4632L5.5033 27.8994L5.5215 27.8944C5.62944 28.687 5.69513 29.4124 5.71857 30.0707ZM21.3638 22.8682L16.8456 24.9482L14.8191 17.6323L19.8415 16.2411L20.5478 18.7907L18.1457 19.456L18.8167 21.8781L20.9275 21.2934L21.3638 22.8682ZM30.0368 18.8754L23.2943 21.9794L21.572 15.7617L24.1924 15.0359L25.5746 20.0258L27.3943 19.5217L26.0121 14.5318L28.6325 13.8059L30.0368 18.8754ZM44.7897 12.0837L43.6835 9.63675L40.226 10.5945L40.6227 14.0021L42.6452 13.071L42.5084 12.6094L42.6904 12.559L42.8036 12.998L44.7897 12.0837ZM37.3853 15.4924L34.921 16.6269L34.9868 12.0458L37.6072 11.3199L37.3853 15.4924ZM34.3497 16.8899L33.1489 12.5549L30.5284 13.2807L31.8473 18.0419L34.3497 16.8899ZM14.7603 25.9082L12.2579 27.0602L10.015 18.963L12.6354 18.2372L14.7603 25.9082ZM10.6592 27.7962L8.15682 28.9482L5.72043 20.1526L8.34084 19.4268L10.6592 27.7962Z" fill="white"/>
</g>
<defs>
<clipPath id="clip0">
<rect width="48" height="48" fill="white"/>
</clipPath>
</defs>
</svg>
