<svg width="30" height="30" viewBox="0 0 30 30" fill="none" xmlns="http://www.w3.org/2000/svg">
<rect width="30" height="30" rx="3" fill="#F2F2F2"/>
<path d="M15.045 26.1773C15.8199 26.1773 16.5094 26.0657 17.1135 25.8424C17.7177 25.606 18.2299 25.2842 18.6501 24.8771C19.0835 24.4568 19.4119 23.9512 19.6351 23.3602C19.8584 22.7692 19.97 22.1125 19.97 21.3902C19.97 20.6547 19.8584 19.9981 19.6351 19.4202C19.4119 18.8292 19.1032 18.3236 18.7092 17.9033C18.3152 17.483 17.8359 17.1613 17.2711 16.938C16.7195 16.7147 16.1088 16.6031 15.439 16.6031C14.9531 16.6031 14.5066 16.6688 14.0994 16.8001C13.6923 16.9183 13.318 17.1022 12.9765 17.3517L13.2326 14.2982H19.0835V12.21H11.105L10.514 19.9127H12.7992C12.9043 19.7551 13.0291 19.6106 13.1735 19.4793C13.3311 19.3348 13.5019 19.2166 13.6857 19.1247C13.8827 19.0196 14.0929 18.9408 14.3161 18.8883C14.5525 18.8358 14.7955 18.8095 15.045 18.8095C15.4259 18.8095 15.7608 18.8686 16.0497 18.9868C16.3518 19.105 16.6079 19.2757 16.818 19.499C17.0413 19.7091 17.2055 19.9784 17.3105 20.3067C17.4287 20.6219 17.4878 20.9831 17.4878 21.3902C17.4878 21.7973 17.4287 22.1651 17.3105 22.4934C17.2055 22.8086 17.0413 23.0778 16.818 23.3011C16.6079 23.5112 16.3518 23.6754 16.0497 23.7936C15.7608 23.9118 15.4259 23.9709 15.045 23.9709C14.4672 23.9709 13.9615 23.8461 13.5281 23.5966C13.1079 23.3471 12.7992 22.9793 12.6022 22.4934H10.12C10.2382 23.0844 10.4418 23.6097 10.7307 24.0694C11.0197 24.5159 11.3743 24.8968 11.7945 25.212C12.2279 25.5272 12.7204 25.7702 13.272 25.9409C13.8236 26.0985 14.4146 26.1773 15.045 26.1773Z" fill="#FF090B"/>
<path d="M2.27955 9H3.11955V6.851H3.60955L5.07955 9H6.12955L4.32355 6.438L5.98955 4.1H4.99555L3.60955 6.109H3.11955V4.1H2.27955V9ZM6.72291 9H7.56291V7.334H8.40291C9.02824 7.334 9.49958 7.187 9.81691 6.893C10.1342 6.599 10.2929 6.207 10.2929 5.717C10.2929 5.19433 10.1412 4.79533 9.83791 4.52C9.53924 4.24 9.06091 4.1 8.40291 4.1H6.72291V9ZM8.40291 4.842C8.75291 4.842 9.00724 4.919 9.16591 5.073C9.32924 5.22233 9.41091 5.437 9.41091 5.717C9.41091 5.983 9.32691 6.19533 9.15891 6.354C8.99091 6.51267 8.73891 6.592 8.40291 6.592H7.56291V4.842H8.40291ZM10.9202 9H14.0702V8.258H11.7602V6.851H13.6502V6.109H11.7602V4.842H14.0702V4.1H10.9202V9ZM14.4172 10.05H15.2292V9H18.2602V10.05H19.0722V8.258H18.6172V4.1H15.2922V5.71C15.2922 6.11133 15.2828 6.44733 15.2642 6.718C15.2502 6.98867 15.2245 7.21967 15.1872 7.411C15.1498 7.59767 15.1008 7.75633 15.0402 7.887C14.9842 8.013 14.9142 8.13667 14.8302 8.258H14.4172V10.05ZM16.1322 5.71V4.842H17.7772V8.258H15.7682C15.8335 8.14133 15.8895 8.01067 15.9362 7.866C15.9828 7.71667 16.0202 7.544 16.0482 7.348C16.0762 7.14733 16.0972 6.914 16.1112 6.648C16.1252 6.37733 16.1322 6.06467 16.1322 5.71ZM19.6702 9H20.7902L22.5122 5.78L22.8202 5.122V9H23.6602V4.1H22.5542L20.8322 7.32L20.5102 8.013V4.1H19.6702V9ZM25.7599 9H26.5999V4.842H28.1049V4.1H24.2549V4.842H25.7599V9Z" fill="black"/>
</svg>
