<svg width="30" height="30" viewBox="0 0 30 30" fill="none" xmlns="http://www.w3.org/2000/svg">
<rect width="30" height="30" rx="3" fill="#FF090B"/>
<path fill-rule="evenodd" clip-rule="evenodd" d="M12.8421 9.78754C12.8421 9.23057 12.8316 8.6736 12.8421 8.11245C12.8479 8.01652 12.8333 7.92044 12.7991 7.83062C12.765 7.74079 12.7121 7.65929 12.644 7.59153C12.5759 7.52377 12.4941 7.47131 12.4041 7.43765C12.3142 7.404 12.2181 7.38992 12.1223 7.39634C11.4715 7.41309 10.8187 7.39634 10.1658 7.39634C10.0953 7.39665 10.025 7.38821 9.95657 7.37122C9.92697 7.36729 9.89889 7.3558 9.87503 7.33784C9.85116 7.31989 9.83233 7.29608 9.82034 7.26872C9.80835 7.24136 9.80362 7.21137 9.80659 7.18164C9.80956 7.15192 9.82013 7.12346 9.8373 7.09901C9.86739 7.05028 9.904 7.0059 9.94611 6.9671L14.6939 2.20566C14.7527 2.14088 14.8244 2.08913 14.9044 2.05371C14.9844 2.01829 15.0709 2 15.1584 2C15.2459 2 15.3324 2.01829 15.4124 2.05371C15.4924 2.08913 15.5641 2.14088 15.6229 2.20566L20.3623 6.94826C20.4502 7.0362 20.5528 7.13461 20.4942 7.27071C20.4356 7.40681 20.2849 7.39844 20.1698 7.40053C19.5421 7.40053 18.9311 7.41519 18.3138 7.40053C18.2151 7.39292 18.1159 7.40685 18.023 7.44137C17.9302 7.47588 17.8459 7.53015 17.7761 7.60043C17.7062 7.67071 17.6525 7.75532 17.6185 7.84842C17.5846 7.94152 17.5712 8.04089 17.5794 8.13967C17.5794 9.25779 17.5794 10.3759 17.5794 11.4898C17.5852 11.5852 17.5707 11.6807 17.5369 11.7701C17.5031 11.8594 17.4508 11.9406 17.3834 12.0083C17.3159 12.0759 17.235 12.1285 17.1458 12.1626C17.0566 12.1967 16.9612 12.2114 16.8659 12.2059C15.7527 12.1934 14.6395 12.2059 13.5179 12.2059C13.4248 12.2158 13.3307 12.2048 13.2424 12.1735C13.1541 12.1423 13.074 12.0917 13.0078 12.0255C12.9416 11.9592 12.891 11.879 12.8598 11.7907C12.8286 11.7023 12.8175 11.6081 12.8274 11.515V9.78754H12.8421ZM12.8421 19.8925V18.0646C12.8355 17.9744 12.8484 17.884 12.88 17.7993C12.9115 17.7146 12.961 17.6377 13.0249 17.5739C13.0889 17.5101 13.1659 17.4609 13.2506 17.4296C13.3353 17.3982 13.4258 17.3856 13.5158 17.3925C14.652 17.3925 15.7861 17.3925 16.9223 17.3925C17.0094 17.3919 17.0958 17.4086 17.1764 17.4416C17.2569 17.4747 17.3302 17.5234 17.3919 17.5849C17.4535 17.6464 17.5024 17.7196 17.5357 17.8001C17.569 17.8806 17.5859 17.967 17.5857 18.0541C17.5752 19.256 17.5857 20.46 17.5857 21.6618C17.5774 21.7626 17.5902 21.8641 17.6234 21.9596C17.6565 22.0552 17.7092 22.1427 17.7782 22.2167C17.8379 22.2789 17.9098 22.328 17.9893 22.3612C18.0689 22.3943 18.1544 22.4107 18.2406 22.4093H20.0317C20.1085 22.4083 20.1851 22.4167 20.2598 22.4345C20.2885 22.4384 20.3157 22.4495 20.3388 22.4669C20.3619 22.4842 20.3802 22.5072 20.392 22.5337C20.4037 22.5601 20.4085 22.5891 20.4059 22.6179C20.4033 22.6468 20.3933 22.6744 20.377 22.6983C20.3462 22.7563 20.3067 22.8093 20.2598 22.8553L15.6188 27.487C15.5624 27.5478 15.4945 27.5969 15.419 27.6313C15.3436 27.6657 15.262 27.6849 15.1792 27.6876C15.0963 27.6903 15.0137 27.6766 14.9361 27.6472C14.8586 27.6178 14.7876 27.5733 14.7274 27.5163C14.6981 27.4891 14.6688 27.4618 14.6395 27.4325L10.8354 23.6196C10.5745 23.3586 10.3144 23.0954 10.0549 22.8302C9.97331 22.7465 9.87915 22.6564 9.93355 22.5245C9.98796 22.3926 10.1198 22.3947 10.237 22.3947H12.1599C12.251 22.4015 12.3424 22.3886 12.4281 22.357C12.5138 22.3254 12.5916 22.2758 12.6565 22.2115C12.7214 22.1472 12.7717 22.0697 12.804 21.9843C12.8364 21.8988 12.8501 21.8074 12.8442 21.7163C12.8442 21.107 12.8442 20.4977 12.8442 19.8904L12.8421 19.8925ZM7.66533 14.8358C7.66533 16.4746 7.66533 18.1127 7.66533 19.7501C7.66685 19.834 7.65771 19.9177 7.63813 19.9993C7.63419 20.0279 7.62292 20.055 7.60542 20.078C7.58791 20.101 7.56477 20.119 7.53824 20.1304C7.51171 20.1418 7.48268 20.1461 7.45399 20.143C7.4253 20.1398 7.39791 20.1293 7.37448 20.1124C7.30723 20.0748 7.24589 20.0276 7.19244 19.9721L2.54719 15.3258C2.47662 15.2648 2.42024 15.189 2.38199 15.1039C2.34374 15.0187 2.32454 14.9263 2.32574 14.8329C2.32693 14.7396 2.34849 14.6476 2.38892 14.5635C2.42934 14.4794 2.48764 14.4051 2.55974 14.3459L7.21545 9.68912C7.30543 9.59909 7.40587 9.50068 7.53978 9.55931C7.6737 9.61793 7.66533 9.75403 7.66533 9.87548V14.8358ZM22.7666 14.8358C22.7666 13.2487 22.7666 11.6615 22.7666 10.0744C22.7639 9.97572 22.7744 9.87712 22.798 9.78125C22.803 9.75572 22.8142 9.73182 22.8306 9.71163C22.847 9.69144 22.8681 9.67559 22.8921 9.66546C22.9161 9.65534 22.9421 9.65124 22.968 9.65354C22.9939 9.65584 23.0189 9.66447 23.0407 9.67866C23.1029 9.70862 23.1595 9.74899 23.2081 9.79801C24.7425 11.3335 26.277 12.8655 27.8115 14.394C27.9268 14.507 27.9942 14.6602 27.9996 14.8216C28.0051 14.983 27.9482 15.1403 27.8408 15.2609C27.8115 15.2944 27.7822 15.3258 27.7508 15.3572L24.7753 18.3263L23.2185 19.88C23.1286 19.97 23.0344 20.0684 22.8963 20.0119C22.7582 19.9553 22.777 19.8255 22.7687 19.7083C22.7687 19.6643 22.7687 19.6203 22.7687 19.5764C22.7687 17.9962 22.7687 16.416 22.7687 14.8358H22.7666Z" fill="white"/>
</svg>
