<svg width="30" height="30" viewBox="0 0 30 30" fill="none" xmlns="http://www.w3.org/2000/svg">
<rect x="0.5" y="0.5" width="29" height="29" rx="2.5" fill="#F2F2F2" stroke="#F2F2F2"/>
<path d="M11.8726 6.59239C13.6918 5.32805 15.9759 4.77168 18.1612 5.08615C20.5169 5.40224 22.7229 6.71012 24.1458 8.63726C25.6897 10.6966 26.3344 13.4334 25.833 15.9749C25.4255 18.2214 24.1649 20.3033 22.3473 21.6596C20.6267 22.9739 18.4302 23.6335 16.2815 23.4497C13.3894 23.2739 10.6836 21.537 9.2002 19.0293C11.7707 17.5054 14.3412 15.9765 16.9261 14.4784C15.2819 11.8255 13.5534 9.22266 11.8726 6.59239Z" fill="#FFCF00"/>
<path d="M5.44998 10.7207C6.07487 8.73366 7.39833 7.00654 9.09513 5.83997C10.8272 8.47532 12.4887 11.1562 14.24 13.7769C11.5882 15.3269 8.9365 16.8769 6.29277 18.4399C4.93726 16.1474 4.63283 13.2586 5.44998 10.7207Z" fill="#00B000"/>
<path d="M19.0336 27V27.5H19.5336H20.8176H21.3176V27V19.51V19.01H20.8176H19.5336H19.3814L19.2549 19.0949L17.7569 20.1007L17.5356 20.2493V20.5158V21.8319V22.7643L18.3123 22.2484L19.0336 21.7692V27ZM26.028 27.3693L26.028 27.3694L26.0366 27.3658C26.4448 27.1973 26.7906 26.9346 27.0699 26.5859C27.3571 26.229 27.562 25.7926 27.6971 25.2934C27.8412 24.7874 27.908 24.1976 27.908 23.5332V22.9768C27.908 22.3061 27.8449 21.7139 27.7088 21.2094C27.574 20.7098 27.3688 20.2744 27.0791 19.9223C26.7996 19.5739 26.4529 19.3143 26.0431 19.1531C25.6454 18.9896 25.2057 18.9137 24.733 18.9137C24.2661 18.9137 23.8302 18.99 23.4336 19.1531C23.0208 19.3155 22.6707 19.5803 22.3854 19.9348L22.3844 19.9359C22.1049 20.2853 21.9008 20.717 21.7591 21.213L21.7591 21.213L21.7571 21.2201C21.6211 21.7242 21.558 22.3127 21.558 22.9768V23.5332C21.558 24.2039 21.621 24.7961 21.7571 25.3006L21.7571 25.3006L21.7591 25.3077C21.9008 25.8037 22.1049 26.2354 22.3844 26.5847C22.6639 26.9341 23.01 27.1971 23.4186 27.3658L23.4185 27.366L23.4306 27.3706C23.831 27.524 24.2673 27.5963 24.733 27.5963C25.1984 27.5963 25.6326 27.524 26.028 27.3693ZM25.2701 21.3663L25.2701 21.3664L25.2748 21.3738C25.3445 21.4828 25.4169 21.6611 25.4741 21.9343L25.4741 21.9343L25.4746 21.9367C25.5287 22.1891 25.5598 22.5324 25.5598 22.9768V23.5332C25.5598 23.9849 25.5287 24.3363 25.4741 24.5971L25.474 24.597L25.4723 24.6059C25.4223 24.8683 25.3537 25.0403 25.2855 25.1469C25.2149 25.2572 25.1474 25.3074 25.09 25.3324C24.9979 25.3724 24.8819 25.3979 24.733 25.3979C24.5938 25.3979 24.4808 25.3733 24.3866 25.3324C24.3273 25.3066 24.2559 25.2545 24.1792 25.1447C24.107 25.024 24.0371 24.845 23.9821 24.5907C23.9334 24.3256 23.9062 23.9757 23.9062 23.5332V22.9768C23.9062 22.525 23.9337 22.1757 23.9821 21.9191C24.0391 21.6485 24.1111 21.4715 24.1804 21.3631C24.251 21.2528 24.3186 21.2026 24.3759 21.1776C24.468 21.1376 24.5841 21.1121 24.733 21.1121C24.8721 21.1121 24.9851 21.1367 25.0793 21.1776C25.1308 21.2 25.1978 21.2488 25.2701 21.3663Z" fill="black" stroke="#F2F2F2"/>
</svg>
