<svg width="30" height="30" viewBox="0 0 30 30" fill="none" xmlns="http://www.w3.org/2000/svg">
<rect x="0.5" y="0.5" width="29" height="29" rx="2.5" fill="#F2F2F2" stroke="#F2F2F2"/>
<path d="M9.19439 5C9.83025 5.0059 10.462 5.09564 11.0854 5.2155C12.0289 5.44339 12.9605 5.85962 13.6283 6.58345C14.5918 7.61901 14.887 9.14283 14.6314 10.5072C13.907 10.5108 13.1808 10.4252 12.4829 10.2274C11.5507 9.98887 10.6509 9.50946 10.0363 8.75552C9.18317 7.72528 8.94229 6.29061 9.19439 5Z" fill="#76D15C"/>
<path d="M11.312 11.6414C12.3764 11.5186 13.4185 11.8297 14.4735 11.9035C15.4861 11.9478 16.4703 11.6202 17.4816 11.6178C18.356 11.5895 19.2369 11.8168 19.9926 12.2572C20.89 12.7697 21.5512 13.6263 21.9509 14.568C22.1227 15.0362 22.2957 15.5109 22.3548 16.0092C22.6376 17.8489 22.2987 19.7358 21.6339 21.4586C21.3151 22.2774 20.913 23.0644 20.423 23.7942C19.9383 24.495 19.3733 25.1639 18.6477 25.6244C18.1995 25.9096 17.6564 26.0519 17.1262 25.9828C16.2973 25.8942 15.4843 25.6486 14.6448 25.6598C14.222 25.6569 13.8076 25.7454 13.3907 25.8027C12.7944 25.9096 12.1816 26.0814 11.5753 25.9485C10.9418 25.8068 10.4216 25.3882 9.96407 24.949C8.99405 23.9506 8.30978 22.7108 7.80144 21.4243C7.47554 20.5694 7.23938 19.6815 7.09415 18.7781C6.98433 17.902 6.96308 17.0123 7.07053 16.1349C7.27599 14.7445 7.91834 13.3559 9.07493 12.5105C9.72437 12.0263 10.5102 11.7382 11.312 11.6414Z" fill="#76D15C"/>
<path d="M23.6829 26.81L23.3995 27.5H24.1454H25.4854H25.8221L25.9487 27.188L28.3587 21.248L28.3954 21.1576V21.06V20V19.5H27.8954H23.2954H22.7954V20V21.06V21.56H23.2954H25.8395L23.6829 26.81Z" fill="black" stroke="#F2F2F2"/>
</svg>
