<svg width="30" height="30" viewBox="0 0 30 30" fill="none" xmlns="http://www.w3.org/2000/svg">
<rect width="30" height="30" rx="3" fill="#F2F2F2"/>
<path d="M7.8226 25.3356C7.71859 25.3098 7.61403 25.2853 7.51043 25.2572C6.93024 25.0976 6.42328 24.8093 6.00443 24.3759C5.28184 23.6279 4.89299 22.7343 4.85939 21.69C4.84722 21.2977 4.89251 20.9119 4.98455 20.5307C5.09157 20.0832 5.25883 19.6604 5.47778 19.2566C5.82737 18.6123 6.2821 18.0518 6.81993 17.5561C7.22526 17.1825 7.66693 16.8573 8.14018 16.5751C8.58308 16.3107 8.99671 16.0054 9.39208 15.6747C9.88971 15.2577 10.3534 14.8044 10.813 14.3468C11.2193 13.9422 11.6206 13.5337 12.0442 13.148C12.3629 12.8569 12.6937 12.5808 13.0508 12.3381C13.4975 12.0351 13.9737 11.7957 14.5055 11.6799C14.9046 11.5928 15.3055 11.5801 15.7093 11.6426C16.166 11.7123 16.6074 11.8366 17.0306 12.0231C17.6782 12.3092 18.2065 12.7427 18.6268 13.3123C18.914 13.7034 19.1405 14.1284 19.3434 14.5673C19.5586 15.0326 19.7477 15.5089 19.9461 15.9818C20.1698 16.5143 20.4047 17.041 20.6816 17.5487C20.9572 18.0547 21.2755 18.5328 21.6359 18.9824C22.0717 19.5262 22.4406 20.111 22.7306 20.7458C22.9774 21.2899 23.1573 21.8539 23.2481 22.4452C23.3188 22.9057 23.3329 23.3665 23.2754 23.83C23.1887 24.5339 22.951 25.1797 22.5248 25.7515C22.1302 26.2814 21.6249 26.6737 21.0284 26.9509C20.59 27.1546 20.1323 27.2875 19.6482 27.3209C19.4767 27.3332 19.3047 27.3335 19.1333 27.3201C19.1094 27.3183 19.086 27.3186 19.0627 27.3181C19.0385 27.3268 19.0158 27.3131 18.992 27.312C18.9724 27.3112 18.9537 27.2989 18.9332 27.3079C18.7894 27.2825 18.6449 27.2571 18.501 27.2317C18.4861 27.2162 18.4652 27.2215 18.4473 27.2159C18.4305 27.2129 18.4145 27.2101 18.398 27.2072C18.3844 27.2048 18.3696 27.2022 18.3562 27.1999C17.9897 27.1229 17.6453 26.9827 17.3031 26.8369C16.7236 26.589 16.1638 26.2986 15.5895 26.039C15.1244 25.8292 14.651 25.642 14.1614 25.4965C13.8221 25.3956 13.4756 25.33 13.1272 25.2809C12.8485 25.2414 12.566 25.2356 12.2847 25.2385C11.729 25.2452 11.1764 25.2974 10.6236 25.3487C10.0387 25.4039 9.45399 25.4583 8.86634 25.4513C8.62738 25.4478 8.38906 25.4391 8.15336 25.3951C8.10502 25.386 8.05559 25.3848 8.00677 25.375C7.94502 25.3605 7.88158 25.3607 7.8226 25.3356ZM22.1782 3.67803C22.9391 3.90876 23.463 4.40963 23.8065 5.11443C24.0419 5.59772 24.1526 6.11272 24.1833 6.64779C24.2089 7.10848 24.1688 7.5645 24.0739 8.01624C23.8994 8.84625 23.5641 9.60471 23.0701 10.2932C22.7278 10.7703 22.3218 11.1834 21.8384 11.5162C21.408 11.8119 20.9421 12.0267 20.4261 12.1208C20.0636 12.1867 19.7028 12.1873 19.344 12.1018C18.7227 11.9548 18.234 11.6107 17.8632 11.0948C17.5472 10.6546 17.3665 10.1579 17.2744 9.62696C17.2101 9.25571 17.1949 8.88204 17.2189 8.50687C17.2349 8.24966 17.2681 7.99519 17.3208 7.74414C17.4444 7.1514 17.6535 6.58992 17.946 6.06056C18.2569 5.49693 18.645 4.99522 19.129 4.57069C19.5362 4.21361 19.9884 3.93073 20.5023 3.75352C20.88 3.62308 21.2682 3.56405 21.6682 3.5887C21.8876 3.60429 21.9742 3.62126 22.1782 3.67803ZM3.74246 9.8266C3.7966 9.59081 3.88042 9.36475 3.9833 9.14596C4.1827 8.72074 4.45199 8.34863 4.82119 8.05442C5.23378 7.72618 5.70338 7.54955 6.23063 7.53784C6.65872 7.52875 7.06063 7.63591 7.43994 7.83056C7.87596 8.0547 8.24096 8.3695 8.54779 8.74961C9.02477 9.33848 9.32232 10.0121 9.48038 10.7508C9.56292 11.1375 9.59825 11.5292 9.58627 11.9244C9.58056 12.1163 9.56043 12.3068 9.53086 12.4965C9.47424 12.8566 9.37601 13.2034 9.22601 13.5351C9.02596 13.9776 8.75232 14.3642 8.37105 14.6692C7.9334 15.0191 7.43343 15.1967 6.87305 15.1893C6.46185 15.184 6.07656 15.0708 5.71389 14.8785C5.2264 14.6189 4.83417 14.2516 4.50975 13.8084C4.19311 13.377 3.96515 12.9008 3.81227 12.3888C3.66243 11.8867 3.58865 11.3723 3.602 10.8471C3.60461 10.7542 3.60954 10.6618 3.61326 10.5695C3.61097 10.5265 3.62218 10.485 3.61955 10.4423C3.61793 10.4243 3.62341 10.4084 3.62567 10.3906C3.62633 10.3682 3.64029 10.3466 3.6308 10.3225C3.65029 10.2119 3.66973 10.1017 3.68927 9.99087C3.7152 9.96425 3.71099 9.92872 3.71901 9.89684C3.72501 9.87301 3.72343 9.84634 3.74246 9.8266ZM9.7729 5.49522C9.89158 4.83743 10.0897 4.26022 10.41 3.72765C10.6518 3.3249 10.9488 2.96999 11.3255 2.6858C11.7314 2.37886 12.183 2.18707 12.6936 2.14934C13.2043 2.11102 13.6784 2.23121 14.1204 2.4858C14.5097 2.7104 14.8305 3.0129 15.0997 3.37078C15.5296 3.94147 15.7958 4.58585 15.9438 5.28167C16.0378 5.72412 16.0773 6.17138 16.0653 6.62304C16.0584 6.87916 16.0355 7.13455 15.9961 7.38883C15.9454 7.7086 15.8693 8.02271 15.7613 8.32818C15.5363 8.96663 15.2058 9.53998 14.7135 10.0116C14.4074 10.3041 14.0588 10.529 13.6557 10.6643C13.2053 10.8152 12.7488 10.831 12.2896 10.7128C11.8744 10.6063 11.5107 10.4 11.1866 10.1209C10.7638 9.75728 10.4482 9.31173 10.2085 8.81058C9.9243 8.21551 9.76802 7.58542 9.71458 6.92846C9.68524 6.56908 9.6894 6.20961 9.72577 5.85072C9.73876 5.71595 9.75337 5.58056 9.7729 5.49522ZM28.2715 14.5474C28.267 14.5727 28.2625 14.5983 28.258 14.6239C28.1171 15.2534 27.8423 15.821 27.4683 16.3426C27.1744 16.7512 26.8279 17.1097 26.4244 17.4104C25.9064 17.7972 25.3365 18.0695 24.6963 18.1803C24.3128 18.2468 23.9303 18.2453 23.5503 18.1564C22.9894 18.0245 22.5312 17.7314 22.1835 17.2706C21.8966 16.8898 21.7395 16.456 21.6749 15.9875C21.6165 15.5675 21.6368 15.1488 21.7234 14.734C21.9133 13.8218 22.3494 13.0392 22.9849 12.3645C23.1996 12.136 23.4357 11.9317 23.6917 11.7519C24.2181 11.3838 24.7904 11.1302 25.4307 11.0421C25.7947 10.993 26.1557 11.0047 26.5115 11.0966C27.0551 11.2365 27.4989 11.5304 27.8348 11.9828C28.1379 12.3911 28.2924 12.8565 28.3469 13.358C28.377 13.635 28.3742 13.9125 28.3347 14.189C28.3302 14.2146 28.3256 14.2405 28.3211 14.2661C28.3017 14.3592 28.2855 14.453 28.2715 14.5474Z" fill="black"/>
<path d="M13.5477 23H14.8877L17.2977 17.06V16H12.6977V17.06H15.9877L13.5477 23Z" fill="#F2F2F2"/>
</svg>
