<svg width="110" height="42" viewBox="0 0 110 42" fill="none" xmlns="http://www.w3.org/2000/svg">
<rect x="0.5" y="0.5" width="109" height="41" rx="7.5" fill="black"/>
<path d="M27.5489 21.21C27.528 18.7843 29.4592 17.6044 29.5477 17.5492C28.4538 15.8911 26.7583 15.6645 26.163 15.6469C24.7393 15.4914 23.3582 16.5324 22.6327 16.5324C21.8927 16.5324 20.7754 15.662 19.5721 15.6871C18.0229 15.7121 16.5735 16.6445 15.7788 18.0919C14.1387 21.0445 15.3621 25.3825 16.9339 27.769C17.7197 28.9379 18.6391 30.2423 19.8407 30.1963C21.0176 30.1462 21.4567 29.417 22.8764 29.417C24.2832 29.417 24.6959 30.1963 25.9217 30.167C27.1845 30.1462 27.9792 28.9931 28.7378 27.8141C29.6459 26.4745 30.0111 25.1551 30.0255 25.0873C29.9949 25.0781 27.5731 24.1165 27.5489 21.21V21.21Z" fill="white"/>
<path d="M25.2324 14.0771C25.8654 13.2543 26.2982 12.1355 26.1776 11C25.2622 11.0418 24.1168 11.6581 23.4572 12.4633C22.874 13.1724 22.3529 14.3338 22.4871 15.4267C23.5159 15.5061 24.5721 14.8874 25.2324 14.0771V14.0771Z" fill="white"/>
<path d="M46.0639 26.3204H44.4475L43.5618 23.5063H40.4839L39.6401 26.3204H38.0664L41.1158 16.7397H42.9987L46.0639 26.3204ZM43.2953 22.3256L42.4942 19.8234C42.4096 19.5683 42.2506 18.9659 42.0165 18.0188H41.9881C41.8948 18.426 41.7445 19.0283 41.5381 19.8234L40.752 22.3256H43.2953Z" fill="white"/>
<path d="M53.9054 22.7818C53.9054 23.9569 53.5914 24.8856 52.9635 25.5671C52.4012 26.1743 51.7029 26.4775 50.8694 26.4775C49.9695 26.4775 49.3234 26.1503 48.9303 25.4968H48.9019V29.1356H47.3843V21.6867C47.3843 20.9484 47.3653 20.1901 47.3281 19.4126H48.663L48.7476 20.5077H48.7761C49.2822 19.683 50.0501 19.271 51.0806 19.271C51.8864 19.271 52.5586 19.5926 53.0971 20.2373C53.6365 20.882 53.9054 21.7299 53.9054 22.7818V22.7818ZM52.3593 22.8378C52.3593 22.1651 52.2098 21.6108 51.9093 21.1748C51.5811 20.7196 51.1407 20.4925 50.5887 20.4925C50.2146 20.4925 49.8738 20.6189 49.5701 20.8692C49.2656 21.1212 49.0663 21.45 48.973 21.8579C48.9264 22.0483 48.9026 22.2035 48.9026 22.3259V23.4778C48.9026 23.9801 49.0553 24.4041 49.3597 24.7504C49.6642 25.0968 50.0604 25.2696 50.5468 25.2696C51.1185 25.2696 51.563 25.0464 51.8817 24.6016C52.1996 24.1553 52.3593 23.5682 52.3593 22.8378V22.8378Z" fill="white"/>
<path d="M61.7598 22.7818C61.7598 23.9569 61.4459 24.8856 60.8172 25.5671C60.2557 26.1743 59.5574 26.4775 58.7239 26.4775C57.8239 26.4775 57.1778 26.1503 56.7848 25.4968H56.7563V29.1356H55.2388V21.6867C55.2388 20.9484 55.2198 20.1901 55.1826 19.4126H56.5175L56.6021 20.5077H56.6306C57.1359 19.683 57.9038 19.271 58.935 19.271C59.7401 19.271 60.4123 19.5926 60.9524 20.2373C61.4902 20.882 61.7598 21.7299 61.7598 22.7818V22.7818ZM60.2138 22.8378C60.2138 22.1651 60.0635 21.6108 59.763 21.1748C59.4348 20.7196 58.9959 20.4925 58.4424 20.4925C58.0675 20.4925 57.7275 20.6189 57.423 20.8692C57.1185 21.1212 56.92 21.45 56.8267 21.8579C56.7801 22.0483 56.7563 22.2035 56.7563 22.3259V23.4778C56.7563 23.9801 56.909 24.4041 57.2119 24.7504C57.5163 25.096 57.9125 25.2696 58.4004 25.2696C58.9722 25.2696 59.4167 25.0464 59.7354 24.6016C60.0548 24.1553 60.2138 23.5682 60.2138 22.8378V22.8378Z" fill="white"/>
<path d="M70.5431 23.633C70.5431 24.4482 70.2631 25.1113 69.7016 25.6232C69.0848 26.1824 68.2252 26.4624 67.1212 26.4624C66.1018 26.4624 65.2849 26.264 64.6665 25.8656L65.0184 24.5865C65.6843 24.9937 66.4158 25.1985 67.2121 25.1985C67.7839 25.1985 68.2283 25.0673 68.5478 24.8065C68.8657 24.5457 69.0247 24.1962 69.0247 23.7594C69.0247 23.3707 68.8934 23.0427 68.6309 22.7771C68.3699 22.5116 67.9334 22.2644 67.3244 22.0364C65.6661 21.4109 64.8373 20.4942 64.8373 19.2895C64.8373 18.5016 65.1276 17.856 65.7088 17.3537C66.2885 16.8505 67.0611 16.5994 68.0275 16.5994C68.8895 16.5994 69.6052 16.7513 70.1769 17.0545L69.7973 18.3056C69.2635 18.012 68.6601 17.8648 67.9848 17.8648C67.451 17.8648 67.0342 17.9984 66.7353 18.2632C66.483 18.5 66.3557 18.7887 66.3557 19.1303C66.3557 19.5087 66.5004 19.8222 66.7906 20.0686C67.0437 20.2958 67.5024 20.5422 68.1682 20.8077C68.9828 21.1397 69.5814 21.5277 69.9666 21.9724C70.3517 22.4156 70.5431 22.9707 70.5431 23.633V23.633Z" fill="white"/>
<path d="M75.5598 20.563H73.8872V23.9171C73.8872 24.7698 74.1822 25.1961 74.7729 25.1961C75.0442 25.1961 75.2688 25.1721 75.4467 25.1249L75.4886 26.2904C75.1897 26.4032 74.7959 26.46 74.3087 26.46C73.7093 26.46 73.2411 26.2752 72.9034 25.9057C72.5666 25.5353 72.3973 24.9154 72.3973 24.0434V20.5614H71.4009V19.4095H72.3973V18.1448L73.888 17.6897V19.4095H75.5606L75.5598 20.563Z" fill="white"/>
<path d="M83.1065 22.8098C83.1065 23.8721 82.806 24.7432 82.2066 25.4256C81.5779 26.1271 80.7443 26.4775 79.7044 26.4775C78.7025 26.4775 77.9045 26.1415 77.3098 25.4688C76.7151 24.796 76.417 23.9473 76.417 22.9242C76.417 21.8539 76.723 20.9772 77.3375 20.2949C77.9504 19.6126 78.7776 19.271 79.8175 19.271C80.8195 19.271 81.6261 19.607 82.2342 20.2805C82.8163 20.934 83.1065 21.7771 83.1065 22.8098V22.8098ZM81.532 22.8594C81.532 22.2219 81.3976 21.6755 81.1247 21.2204C80.8068 20.6693 80.3521 20.3941 79.7622 20.3941C79.1524 20.3941 78.689 20.6701 78.3703 21.2204C78.0975 21.6771 77.963 22.2323 77.963 22.8882C77.963 23.525 78.0975 24.0721 78.3703 24.5265C78.6985 25.0776 79.1572 25.3528 79.7479 25.3528C80.3276 25.3528 80.7823 25.072 81.1105 24.5121C81.3912 24.0481 81.532 23.4962 81.532 22.8594V22.8594Z" fill="white"/>
<path d="M88.0396 20.7605C87.8894 20.7325 87.7296 20.7181 87.5612 20.7181C87.0274 20.7181 86.6146 20.9221 86.3243 21.3301C86.0713 21.69 85.9447 22.1452 85.9447 22.6939V26.3184H84.428L84.4422 21.5853C84.4422 20.7893 84.4232 20.0638 84.3853 19.4103H85.7067L85.7621 20.7317H85.804C85.9637 20.2774 86.2168 19.9118 86.5624 19.6375C86.9001 19.3903 87.2654 19.2671 87.6592 19.2671C87.7992 19.2671 87.9265 19.2775 88.0388 19.2951C88.0396 19.2967 88.0396 20.7605 88.0396 20.7605V20.7605Z" fill="white"/>
<path d="M94.8251 22.5375C94.8251 22.8127 94.8077 23.0447 94.7697 23.2334H90.2178C90.2352 23.9158 90.4558 24.4381 90.8781 24.7981C91.2617 25.1196 91.7575 25.2812 92.3672 25.2812C93.041 25.2812 93.6563 25.1724 94.209 24.9541L94.4471 26.0195C93.801 26.3043 93.0378 26.4467 92.1577 26.4467C91.0988 26.4467 90.2676 26.1315 89.6626 25.5012C89.0592 24.8709 88.7563 24.0253 88.7563 22.9639C88.7563 21.9224 89.0371 21.0545 89.6002 20.3625C90.1893 19.6242 90.9857 19.2546 91.9884 19.2546C92.973 19.2546 93.7179 19.6242 94.2241 20.3625C94.6242 20.9497 94.8251 21.6752 94.8251 22.5375V22.5375ZM93.3787 22.1391C93.389 21.684 93.2893 21.2912 93.0837 20.9593C92.8212 20.5321 92.4178 20.3193 91.8745 20.3193C91.3787 20.3193 90.9746 20.5273 90.667 20.9449C90.4139 21.2768 90.2644 21.6752 90.2178 22.1383L93.3787 22.1391Z" fill="white"/>
<rect x="0.5" y="0.5" width="109" height="41" rx="7.5" stroke="black"/>
</svg>
